<svg xmlns="http://www.w3.org/2000/svg" viewBox="0 0 300 100" width="300" height="100" role="img" aria-labelledby="title desc">
  <title id="title">RoomWise logo dark</title>
  <desc id="desc">RoomWise logo matching the reference horizontal layout.</desc>
  <defs>
    <style>
      @import url('https://fonts.googleapis.com/css2?family=Montserrat:wght@800;900&amp;family=Poppins:wght@400&amp;display=swap');
    </style>
  </defs>

  <rect width="300" height="100" rx="14" fill="#171717"/>
  <svg x="18" y="17" width="66" height="66" viewBox="820 488 1200 1200" aria-hidden="true" focusable="false">
  <rect x="820" y="488" width="1200" height="1200" rx="260" fill="#FFFFFF"/>
  <path id="icon-frame-gold" fill="#c6a668" d="M0 0h592.4A222 222 0 0 1 659 8a244 244 0 0 1 37 13.4l1.8.8q13 6.1 25.2 14.2l3.7 2.4A216 216 0 0 1 756 61.6q4 3.8 8.2 7.3a153 153 0 0 1 16 17.1 231 231 0 0 1 54 148v332.1l.1 91.8v141.5c.2 22.9-2.5 44.8-8.3 67l-.7 2.8a207 207 0 0 1-35.3 73.2l-2.3 3a238 238 0 0 1-48.7 49l-1.8 1.3a167 167 0 0 1-26.9 16.7 225 225 0 0 1-62 23c-17.6 4.4-35.7 4.3-53.8 4.3h-10.7l-46.4.1-52 .2h-40.1q-65 .3-130 .3h-14.8l-43.4.1-117.5.2H90l-41.8.1H.7a270 270 0 0 1-88.7-13.3l-2.5-.9a221 221 0 0 1-79.5-48.1l-4-3.5a181 181 0 0 1-30-34.2 226 226 0 0 1-33.7-71.8q-4-13.1-6-26.7l-.4-2.3c-2.2-15.8-2-31.9-2-47.8v-25.4l-.1-21.5v-76.7l-.1-84.6V474.4l-.1-90.7v-91.4l-.1-21.4c-.2-69.4-.2-69.4 9.7-99.2l2.2-6.9A221 221 0 0 1-194 89.4l1.8-2.4c11-14 24.1-26.9 38.5-37.4l5.4-4A224 224 0 0 1-103 19.5C-70.6 4.5-35.5-.1 0 0m-53 32.4-2.5.5A174 174 0 0 0-103 50.4l-2.2 1.1a175 175 0 0 0-40 28.3 144 144 0 0 1-11 9c-1.8 1.6-1.8 1.6-2.8 4.6 3.7 4.4 8.3 7.4 13 10.7q7.8 5.2 14.9 11.2 12.2 10 25 19l9.6 7 2.4 1.8q9.4 7 18.4 14.2Q-67 163.9-58 170q8.6 6 16.9 12.7Q-28.4 193-15 202.4l15 11 1.7 1.3q5.1 3.7 9.8 7.8c10.2 8.8 17.7 10.6 30.9 10.3H110l36.5-.2q32.6 0 65.1-.2l63.2-.1h19.6l60.3-.2H373l38.2-.1 30.3-.2h16.3c3.3-.4 4.4-.7 6.2-3.4l1.1-5.6a66 66 0 0 1 42-47.4 76 76 0 0 1 68.9 11l3.1 2.2a69 69 0 0 1 21.9 39.8l.4 3.7a74 74 0 0 1-26.4 66.3 93 93 0 0 1-32 13.6c-22.1 4.3-48-6.2-63-22.6a80 80 0 0 1-16.2-34.8c-.8-3.2-.8-3.2-1.8-4.2-19.2-1.8-38.8-1.2-58-1.2H33.6c-2.7.2-2.7.2-3.7 1.2l-.2 5.3v11.5l-.1 11.5v9.8l-.2 29.7-.1 17.3a46628 46628 0 0 0-.5 312.8v142.9q0 10 .5 20l.2 2.2c.3 4.9.3 4.9 1.4 6 8.2 1.5 16.7 1 25 1q20.1-.1 40.2.2l4.5.1 6.4.2h3.6c3.6.5 6.1 1.7 9.3 3.5l4.4 1.1c3.4 1.2 3.4 1.2 4.1 4q0 3.5-.5 6.9c-4.8 1.2-9.6 1-14.5 1h-9.1l-13.2-.2a4018 4018 0 0 1-59.9-.4c-8.7 0-14.8 4.2-21.6 9.4q-8.7 6.4-18 12-14 9-27.7 18.2A904 904 0 0 1-65 895q-17.5 11-34.7 22.4-8.6 5.9-17.4 11.1l-15.2 9.7-5.6 3.6-1.9 1.2-5.2 3.3-3.1 2-1.8 1c-4.2 2.6-4.2 2.6-4.3 5 9.7 17.7 36 30 53.3 38.2l4.5 2.3c31.9 15.2 65.4 19 100.3 19h582.7c22.4 0 44.6-1.3 66.3-7.4l2.4-.7a202 202 0 0 0 83.6-47.5c2-1.8 2-1.8 4-2.8-.4-5.1-2.2-6.3-6.5-8.7l-1.7-1-5.5-3-5.6-3.3-3.7-2.1q-8.9-5.1-17.2-10.8l-8.6-5.4a869 869 0 0 1-23-15l-19.9-12.8-21.6-14.1a1665 1665 0 0 0-37.6-24.5c-24.7-15.6-24.7-15.6-25.1-20.3a17 17 0 0 1 9-9c5 .2 8.6 3 12.7 5.6a292 292 0 0 1 12.8 8.5q11 7.7 22.4 15l2.4 1.6a1639 1639 0 0 0 46.5 29.7 1967 1967 0 0 1 37.7 24.3l7.5 5q12 7.7 24.3 15l2 1 1.9 1.2 5 3.4c3.3 2 4.3 2.3 7.8.7q2.6-2.8 4.8-5.9l1.2-1.6 5.9-8a132 132 0 0 0 13.2-22.2l1-1.9c20.9-42.7 22.5-86.3 22.4-133V276c.1-54.9.1-54.9-4.5-77.5l-.5-2.4q-1.5-6.9-3.5-13.6l-.8-2.7c-9.5-30.6-24.1-59-46.2-82.3l-3.3-3.9A186 186 0 0 0 702 56.7l-6-3.8a97 97 0 0 0-16.7-8q-18.7-7.6-38.4-12.2l-2.4-.6c-18-4-36.7-4-55.1-3.9H333.9L144.4 28H-5.7A227 227 0 0 0-53 32.5m-125.6 83.1-1.5 2.3c-27.3 41-38.4 85.1-38.3 134v545.8c-.1 33.2 5.5 63.2 18.4 93.8l1.1 2.7c5 11.5 11 21.5 18.5 31.4l3.8 5.1c5.7 7.7 5.7 7.7 10.6 7.8 2.5-1.2 2.5-1.2 5-3l2.5-1.6 2.6-1.7 8.3-5.3 12.9-8.2q14-9.1 28.2-18 10.2-6.4 20.3-13l13.6-9q13-8.4 25.9-17.1 13.3-9 26.8-17.5 10.3-6.5 20.5-13.2l2.8-1.8 2.6-1.7 2.3-1.5c2.8-2.3 2.8-5 2.8-8.5v-42.8l.1-21v-67.8l.1-89.6v-23.4l.1-83.6.1-86v-91.6l.1-40.1v-19.2c0-5.7-.9-8.2-5.6-11.8l-2.2-1.8-2.3-1.7-2.5-2-2.6-2-2.8-2-13.5-9.9q-6-4.2-11.7-9a614 614 0 0 0-29.2-21.4q-8.2-5.6-15.9-12c-9.5-8.2-19.8-15.4-30-22.7q-11.6-8.1-22.5-17-8.7-6.9-17.8-13.5-8.5-6-16.6-12.8c-7.3-6-10-4.8-15 2.8m662.9 103.8a60 60 0 0 0 2.2 48.2 51 51 0 0 0 44.8 27.3 58 58 0 0 0 32.7-11.4l2.3-1.6c1.7-1.4 1.7-1.4 1.7-3.4h2a55 55 0 0 0 12-53 54 54 0 0 0-44-37 53 53 0 0 0-53.7 31" transform="translate(1124 567.6)"/>
  <g id="mark-chair-and-Room" fill="#2a2e2e">
    <path d="M1386 1021.9h170.4c30.8 0 56.3 4.6 80.6 25.1l1.8 1.4c22.4 17.3 31 48 32.4 74.9l.5 7.4.3 4.7.1 2.2c.2 5.2.2 5.2-3.1 7.4q-2 .4-4.3.6a67 67 0 0 0-29.7 16.4l-2 1.5a68 68 0 0 0-22 35.5l-.8 2.6c-2.9 10.7-3 21.6-3.3 32.7l-.4 8.9-.2 5.5c-.2 6.2-.2 6.2-1.3 7.3l-4.2.1h-161.3l-98.5-.1c-.8-3-1.1-5.5-1-8.6v-5.6c.1-24.3-1.1-50.5-18-69.8l-1.3-1.7c-11.4-14.7-30.1-22.1-47.7-26.3-.5-17.9 1-38 7-55l1-3a100 100 0 0 1 40.4-49.7c20-12.8 41.6-14.5 64.6-14.4"/>
    <path d="M1729 1181c7.1 8.7 8.5 18.3 8.3 29.3v3.5q-.2 12.6-1.7 25l-1.8 21.8q-1.5 22-3.5 43.7l-.5 5.6c-2.5 29.2-11.5 56-40 69.5-5.6 2.4-11.5 4-17.5 5.6-3.3 1-3.3 1-4.3 2-1.2 11.3 1.4 23 3 34.1l1 8 .3 2.5c1 7.7 1 7.7-.3 11.4-6.7 4.5-19.3 4.1-27 2-10.5-8.6-12.2-27-15.3-39.5l-3.4-12.8c0-.4 0-.4-.7-2.7-.6-2-.6-2-1.6-3l-4.9-.1h-186.3l-113.8.1-.8 3.5-1 4.6q-.4 1-.6 2.3c-10.1 43-10.1 43-17.6 47.6-2.5.4-2.5.4-5.3.4h-15.2c-3-.5-4.4-1.1-6.5-3.4-.2-2.5-.2-2.5.1-5.6l.4-3.6.5-3.8.5-4 1.5-12.7 1-8.6.3-2q1-7.8 1.7-15.7l-2.2-.5c-23.6-6-42.8-18.8-52.6-41.7l-.9-2c-5-12.7-6-27.2-7.2-40.7l-.3-2.6a2223 2223 0 0 1-4.3-53.9 542 542 0 0 1-1.8-37.9 39 39 0 0 1 5.3-19.7l1.3-2.5c9.3-15.6 26.8-21.3 44-21.8 21.5.4 39.8 9.8 51 28.2 5.6 10.5 7.7 21 8.2 32.6l.2 5 .3 7.6c1.6 34.1 1.6 34.1 11 39.9 2.8 1 4.6 1.1 7.5 1.1h241.8c22.3 0 22.3 0 32-.4l3.6-.1c5.6-1 8.8-4.6 11.1-9.6q1.4-8.7 1.4-17.5l.3-6.2q0-5 .3-9.7c.7-24.5 5-50.4 28.2-63.8 25.9-13.3 52.8-9.5 72.8 11.2"/>
  </g>
  <g id="node"><circle cx="1656" cy="810" r="63" fill="none" stroke="#c6a668" stroke-width="18.6"/><circle cx="1656" cy="810" r="37.5" fill="#7a8f76"/></g>
  </svg>

  <g font-family="Montserrat, Helvetica Neue, Arial, sans-serif">
    <text x="98" y="53" font-size="34" letter-spacing="0">
      <tspan font-weight="800" fill="#FAF8F2">Room</tspan><tspan font-weight="900" fill="#96A585">Wise</tspan>
    </text>
    <text x="100" y="70" font-family="Poppins, Helvetica Neue, Arial, sans-serif" font-size="8.8" font-weight="400" letter-spacing="0.22em" textLength="178" lengthAdjust="spacing" fill="#8F8475">AI INTERIOR DESIGN STUDIO</text>
  </g>
</svg>
